<?xml version="1.0" encoding="UTF-8" standalone="no"?>
<!-- Created with Inkscape (http://www.inkscape.org/) -->

<svg
   width="103.26295mm"
   height="103.78746mm"
   viewBox="0 0 103.26295 103.78746"
   version="1.1"
   id="svg1"
   inkscape:export-batch-path="/Users/macmini/Desktop/Marcin"
   inkscape:export-batch-name="batch"
   inkscape:export-filename="bitmapa.svg"
   inkscape:export-xdpi="95.794281"
   inkscape:export-ydpi="95.794281"
   xmlns:inkscape="http://www.inkscape.org/namespaces/inkscape"
   xmlns:sodipodi="http://sodipodi.sourceforge.net/DTD/sodipodi-0.dtd"
   xmlns="http://www.w3.org/2000/svg"
   xmlns:svg="http://www.w3.org/2000/svg">
  <sodipodi:namedview
     id="namedview1"
     pagecolor="#505050"
     bordercolor="#ffffff"
     borderopacity="1"
     inkscape:showpageshadow="0"
     inkscape:pageopacity="0"
     inkscape:pagecheckerboard="1"
     inkscape:deskcolor="#505050"
     inkscape:document-units="mm"
     showguides="true">
    <inkscape:page
       x="0"
       y="0"
       width="103.26295"
       height="103.78746"
       id="page2"
       margin="0"
       bleed="0" />
  </sodipodi:namedview>
  <defs
     id="defs1" />
  <g
     inkscape:label="Warstwa 1"
     inkscape:groupmode="layer"
     id="layer1"
     transform="translate(-55.055497,-81.22901)">
    <path
       id="path1"
       style="fill:#000000;stroke-width:0.264583"
       d="m 94.085673,81.22901 a 52.808323,52.808323 0 0 0 -39.030176,50.9788 52.808323,52.808323 0 0 0 52.808143,52.80866 52.808323,52.808323 0 0 0 50.45481,-37.21892 46.441364,46.441364 0 0 1 -29.10675,10.25312 46.441364,46.441364 0 0 1 -46.441099,-46.4416 46.441364,46.441364 0 0 1 11.315072,-30.38006 z" />
    <path
       id="path2"
       style="fill:#ffeeaa;stroke:#000000;stroke-width:0.465;stroke-dasharray:none;stroke-opacity:1"
       d="m 94.085673,81.22901 a 52.808323,52.808323 0 0 0 -39.030176,50.9788 52.808323,52.808323 0 0 0 52.808143,52.80866 52.808323,52.808323 0 0 0 50.45481,-37.21892 46.441364,46.441364 0 0 1 -29.10675,10.25312 46.441364,46.441364 0 0 1 -46.441099,-46.4416 46.441364,46.441364 0 0 1 11.315072,-30.38006 z" />
  </g>
</svg>
